# Blender 4.2.3 LTS
# www.blender.org
mtllib circulo_magico.mtl
o base
v -0.355644 0.000000 1.787949
v 0.355644 0.000000 1.787949
v 1.012792 0.000000 1.515754
v 1.515754 0.000000 1.012792
v 1.787949 0.000000 0.355644
v 1.787949 -0.000000 -0.355644
v 1.515754 -0.000000 -1.012792
v 1.012792 -0.000000 -1.515754
v 0.355644 -0.000000 -1.787949
v -0.355644 -0.000000 -1.787949
v -1.012792 -0.000000 -1.515754
v -1.515754 -0.000000 -1.012792
v -1.787949 -0.000000 -0.355644
v -1.787949 0.000000 0.355644
v -1.515748 0.000000 1.012792
v -1.012792 0.000000 1.515754
v 1.091343 0.000000 0.729209
v 0.729209 0.000000 1.091343
v 0.256066 0.000000 1.287326
v -0.256066 0.000000 1.287326
v -0.729209 0.000000 1.091343
v -1.091343 0.000000 0.729209
v -1.287326 0.000000 0.256066
v -1.287326 -0.000000 -0.256066
v -1.091343 -0.000000 -0.729209
v -0.729209 -0.000000 -1.091343
v -0.256066 -0.000000 -1.287326
v 0.256066 -0.000000 -1.287326
v 0.729209 -0.000000 -1.091343
v 1.091343 -0.000000 -0.729209
v 1.287326 -0.000000 -0.256066
v 1.287326 0.000000 0.256066
vn -0.0000 1.0000 -0.0000
vt 0.211168 0.001328
vt 0.312224 0.001328
vt 0.298076 0.072454
vt 0.225316 0.072454
vt 0.405587 0.040001
vt 0.365297 0.100298
vt 0.477044 0.111458
vt 0.416746 0.151747
vt 0.515716 0.204821
vt 0.444590 0.218968
vt 0.515716 0.305876
vt 0.444590 0.291728
vt 0.477044 0.399239
vt 0.416746 0.358950
vt 0.405587 0.470696
vt 0.365297 0.410399
vt 0.312224 0.509369
vt 0.298076 0.438243
vt 0.211168 0.509369
vt 0.225316 0.438243
vt 0.117805 0.470696
vt 0.158094 0.410399
vt 0.046348 0.399239
vt 0.106645 0.358950
vt 0.007676 0.305876
vt 0.078801 0.291728
vt 0.007676 0.204821
vt 0.078801 0.218968
vt 0.046348 0.111457
vt 0.106645 0.151747
vt 0.117805 0.040001
vt 0.158094 0.100298
s 1
usemtl magic_circle.001
f 1/1/1 2/2/1 19/3/1 20/4/1
f 2/2/1 3/5/1 18/6/1 19/3/1
f 3/5/1 4/7/1 17/8/1 18/6/1
f 4/7/1 5/9/1 32/10/1 17/8/1
f 5/9/1 6/11/1 31/12/1 32/10/1
f 6/11/1 7/13/1 30/14/1 31/12/1
f 7/13/1 8/15/1 29/16/1 30/14/1
f 8/15/1 9/17/1 28/18/1 29/16/1
f 9/17/1 10/19/1 27/20/1 28/18/1
f 10/19/1 11/21/1 26/22/1 27/20/1
f 11/21/1 12/23/1 25/24/1 26/22/1
f 12/23/1 13/25/1 24/26/1 25/24/1
f 13/25/1 14/27/1 23/28/1 24/26/1
f 14/27/1 15/29/1 22/30/1 23/28/1
f 15/29/1 16/31/1 21/32/1 22/30/1
f 16/31/1 1/1/1 20/4/1 21/32/1
o base_middle_cicrle
v -0.203233 0.141011 1.021725
v 0.203233 0.141011 1.021725
v 0.578761 0.141011 0.866178
v 0.866178 0.141011 0.578761
v 1.021725 0.141011 0.203233
v 1.021725 0.141011 -0.203233
v 0.866178 0.141011 -0.578761
v 0.578761 0.141010 -0.866178
v 0.203233 0.141010 -1.021725
v -0.203233 0.141010 -1.021725
v -0.578761 0.141010 -0.866178
v -0.866178 0.141011 -0.578761
v -1.021725 0.141011 -0.203233
v -1.021725 0.141011 0.203233
v -0.866178 0.141011 0.578761
v -0.578761 0.141011 0.866178
v 0.000000 0.141011 -0.000000
vn -0.0000 1.0000 -0.0000
vt 0.232246 0.119593
vt 0.286253 0.119593
vt 0.259249 0.255348
vt 0.336148 0.140261
vt 0.374337 0.178449
vt 0.395004 0.228345
vt 0.395004 0.282352
vt 0.374337 0.332248
vt 0.336148 0.370436
vt 0.286253 0.391104
vt 0.232246 0.391104
vt 0.182350 0.370436
vt 0.144162 0.332247
vt 0.123494 0.282352
vt 0.123494 0.228345
vt 0.144162 0.178449
vt 0.182350 0.140261
s 1
usemtl magic_circle.001
f 33/33/2 34/34/2 49/35/2
f 34/34/2 35/36/2 49/35/2
f 35/36/2 36/37/2 49/35/2
f 36/37/2 37/38/2 49/35/2
f 37/38/2 38/39/2 49/35/2
f 38/39/2 39/40/2 49/35/2
f 39/40/2 40/41/2 49/35/2
f 40/41/2 41/42/2 49/35/2
f 41/42/2 42/43/2 49/35/2
f 42/43/2 43/44/2 49/35/2
f 43/44/2 44/45/2 49/35/2
f 44/45/2 45/46/2 49/35/2
f 45/46/2 46/47/2 49/35/2
f 46/47/2 47/48/2 49/35/2
f 47/48/2 48/49/2 49/35/2
f 48/49/2 33/33/2 49/35/2
o big_star
v -0.318562 0.448883 1.601525
v 0.318562 0.448883 1.601525
v 0.907192 0.448883 1.357710
v 1.357710 0.448883 0.907192
v 1.601525 0.448883 0.318562
v 1.601525 0.448883 -0.318562
v 1.357710 0.448883 -0.907192
v 0.907192 0.448883 -1.357710
v 0.318562 0.448883 -1.601525
v -0.318562 0.448883 -1.601525
v -0.907192 0.448883 -1.357710
v -1.357710 0.448883 -0.907192
v -1.601525 0.448883 -0.318562
v -1.601525 0.448883 0.318562
v -1.357710 0.448883 0.907192
v -0.907192 0.448883 1.357710
v 0.338470 0.448883 -0.506560
v 0.119109 0.448883 -0.598791
v -0.119176 0.448883 -0.599149
v -0.343715 0.448883 -0.514405
v -0.515821 0.448883 -0.344663
v -0.614651 0.448883 -0.122263
v -0.600832 0.448883 0.119510
v -0.514174 0.448883 0.343563
v -0.342700 0.448883 0.512886
v -0.119364 0.448883 0.600091
v 0.118696 0.448883 0.596718
v 0.339503 0.448883 0.508097
v 0.502045 0.448883 0.335456
v 0.588624 0.448883 0.117085
v 0.590416 0.448883 -0.117444
v 0.502093 0.448883 -0.335487
vn -0.0000 1.0000 -0.0000
vt 0.379974 0.952793
vt 0.295104 0.987947
vt 0.266346 0.843371
vt 0.297975 0.830073
vt 0.203242 0.987947
vt 0.231990 0.843422
vt 0.118373 0.952793
vt 0.199616 0.831205
vt 0.053416 0.887837
vt 0.174801 0.806730
vt 0.018262 0.802967
vt 0.160552 0.774664
vt 0.018262 0.711105
vt 0.162545 0.739805
vt 0.053417 0.626236
vt 0.175038 0.707501
vt 0.118373 0.561279
vt 0.199762 0.683088
vt 0.203242 0.526125
vt 0.231963 0.670514
vt 0.295104 0.526125
vt 0.266287 0.671001
vt 0.379974 0.561280
vt 0.298123 0.683777
vt 0.444930 0.626236
vt 0.321559 0.708669
vt 0.480084 0.711105
vt 0.334043 0.740155
vt 0.480084 0.802967
vt 0.334301 0.773969
vt 0.444930 0.887837
vt 0.321566 0.805408
s 1
usemtl magic_circle.001
f 57/50/3 58/51/3 67/52/3 66/53/3
f 58/51/3 59/54/3 68/55/3 67/52/3
f 59/54/3 60/56/3 69/57/3 68/55/3
f 60/56/3 61/58/3 70/59/3 69/57/3
f 61/58/3 62/60/3 71/61/3 70/59/3
f 62/60/3 63/62/3 72/63/3 71/61/3
f 63/62/3 64/64/3 73/65/3 72/63/3
f 64/64/3 65/66/3 74/67/3 73/65/3
f 65/66/3 50/68/3 75/69/3 74/67/3
f 50/68/3 51/70/3 76/71/3 75/69/3
f 51/70/3 52/72/3 77/73/3 76/71/3
f 52/72/3 53/74/3 78/75/3 77/73/3
f 53/74/3 54/76/3 79/77/3 78/75/3
f 54/76/3 55/78/3 80/79/3 79/77/3
f 55/78/3 56/80/3 81/81/3 80/79/3
f 56/80/3 57/50/3 66/53/3 81/81/3
o bolt_rune
v 1.290455 0.590277 -0.969791
v 1.457287 0.590277 -0.969791
v 1.611418 0.590277 -1.033636
v 1.729391 0.590277 -1.151602
v 1.793230 0.590276 -1.305733
v 1.793230 0.590276 -1.472565
v 1.729391 0.590276 -1.626702
v 1.611418 0.590276 -1.744668
v 1.457287 0.590276 -1.808513
v 1.290455 0.590276 -1.808513
v 1.136325 0.590276 -1.744668
v 1.018352 0.590276 -1.626702
v 0.954513 0.590276 -1.472565
v 0.954513 0.590276 -1.305733
v 1.018358 0.590277 -1.151602
v 1.136325 0.590277 -1.033636
v 1.373874 0.590276 -1.389152
vn -0.0000 1.0000 -0.0000
vt 0.690739 0.533467
vt 0.721889 0.559755
vt 0.640234 0.624911
vt 0.740607 0.595963
vt 0.744045 0.636578
vt 0.731678 0.675416
vt 0.705390 0.706566
vt 0.669182 0.725284
vt 0.628567 0.728722
vt 0.589729 0.716355
vt 0.558579 0.690067
vt 0.539861 0.653859
vt 0.536423 0.613244
vt 0.548790 0.574406
vt 0.575078 0.543256
vt 0.611286 0.524538
vt 0.651901 0.521100
s 1
usemtl magic_circle.001
f 82/82/4 83/83/4 98/84/4
f 83/83/4 84/85/4 98/84/4
f 84/85/4 85/86/4 98/84/4
f 85/86/4 86/87/4 98/84/4
f 86/87/4 87/88/4 98/84/4
f 87/88/4 88/89/4 98/84/4
f 88/89/4 89/90/4 98/84/4
f 89/90/4 90/91/4 98/84/4
f 90/91/4 91/92/4 98/84/4
f 91/92/4 92/93/4 98/84/4
f 92/93/4 93/94/4 98/84/4
f 93/94/4 94/95/4 98/84/4
f 94/95/4 95/96/4 98/84/4
f 95/96/4 96/97/4 98/84/4
f 96/97/4 97/98/4 98/84/4
f 97/98/4 82/82/4 98/84/4
o crossed_box_rune
v -1.434492 0.590283 1.870978
v -1.267655 0.590283 1.870978
v -1.113524 0.590283 1.807134
v -0.995557 0.590283 1.689167
v -0.931712 0.590283 1.535036
v -0.931712 0.590283 1.368205
v -0.995557 0.590283 1.214068
v -1.113524 0.590283 1.096101
v -1.267655 0.590283 1.032256
v -1.434492 0.590283 1.032256
v -1.588623 0.590283 1.096101
v -1.706590 0.590283 1.214068
v -1.770435 0.590283 1.368205
v -1.770435 0.590283 1.535036
v -1.706590 0.590283 1.689167
v -1.588623 0.590283 1.807134
v -1.351074 0.590283 1.451617
vn -0.0000 1.0000 -0.0000
vt 0.943918 0.788236
vt 0.973962 0.815781
vt 0.889703 0.877531
vt 0.991179 0.852726
vt 0.992948 0.893447
vt 0.978997 0.931746
vt 0.951453 0.961791
vt 0.914508 0.979008
vt 0.873786 0.980776
vt 0.835488 0.966826
vt 0.805443 0.939281
vt 0.788226 0.902336
vt 0.786458 0.861615
vt 0.800408 0.823316
vt 0.827952 0.793271
vt 0.864898 0.776055
vt 0.905619 0.774286
s 1
usemtl magic_circle.001
f 99/99/5 100/100/5 115/101/5
f 100/100/5 101/102/5 115/101/5
f 101/102/5 102/103/5 115/101/5
f 102/103/5 103/104/5 115/101/5
f 103/104/5 104/105/5 115/101/5
f 104/105/5 105/106/5 115/101/5
f 105/106/5 106/107/5 115/101/5
f 106/107/5 107/108/5 115/101/5
f 107/108/5 108/109/5 115/101/5
f 108/109/5 109/110/5 115/101/5
f 109/110/5 110/111/5 115/101/5
f 110/111/5 111/112/5 115/101/5
f 111/112/5 112/113/5 115/101/5
f 112/113/5 113/114/5 115/101/5
f 113/114/5 114/115/5 115/101/5
f 114/115/5 99/99/5 115/101/5
o down_rune
v -0.127307 0.247498 2.990020
v 0.111027 0.247498 2.990020
v 0.331214 0.247498 2.898817
v 0.499742 0.247498 2.730290
v 0.590945 0.247498 2.510102
v 0.590945 0.247498 2.271768
v 0.499742 0.247498 2.051581
v 0.331214 0.247498 1.883054
v 0.111027 0.247498 1.791850
v -0.127307 0.247498 1.791850
v -0.347495 0.247498 1.883054
v -0.516022 0.247498 2.051581
v -0.607225 0.247498 2.271768
v -0.607225 0.247498 2.510102
v -0.516022 0.247498 2.730290
v -0.347495 0.247498 2.898817
v -0.008143 0.247498 2.390938
vn -0.0000 1.0000 -0.0000
vt 0.860137 0.278990
vt 0.901094 0.278990
vt 0.880616 0.381942
vt 0.938934 0.294663
vt 0.967895 0.323624
vt 0.983568 0.361463
vt 0.983568 0.402420
vt 0.967895 0.440260
vt 0.938934 0.469221
vt 0.901094 0.484894
vt 0.860137 0.484894
vt 0.822298 0.469221
vt 0.793337 0.440260
vt 0.777663 0.402420
vt 0.777663 0.361463
vt 0.793337 0.323624
vt 0.822298 0.294663
s 1
usemtl magic_circle.001
f 116/116/6 117/117/6 132/118/6
f 117/117/6 118/119/6 132/118/6
f 118/119/6 119/120/6 132/118/6
f 119/120/6 120/121/6 132/118/6
f 120/121/6 121/122/6 132/118/6
f 121/122/6 122/123/6 132/118/6
f 122/123/6 123/124/6 132/118/6
f 123/124/6 124/125/6 132/118/6
f 124/125/6 125/126/6 132/118/6
f 125/126/6 126/127/6 132/118/6
f 126/127/6 127/128/6 132/118/6
f 127/128/6 128/129/6 132/118/6
f 128/129/6 129/130/6 132/118/6
f 129/130/6 130/131/6 132/118/6
f 130/131/6 131/132/6 132/118/6
f 131/132/6 116/116/6 132/118/6
o line_rune
v 1.322579 0.590283 1.843632
v 1.489410 0.590283 1.843632
v 1.643541 0.590283 1.779793
v 1.761508 0.590283 1.661821
v 1.825352 0.590283 1.507690
v 1.825352 0.590283 1.340858
v 1.761508 0.590283 1.186727
v 1.643541 0.590283 1.068755
v 1.489410 0.590283 1.004916
v 1.322579 0.590283 1.004916
v 1.168442 0.590283 1.068755
v 1.050475 0.590283 1.186727
v 0.986630 0.590283 1.340858
v 0.986630 0.590283 1.507690
v 1.050475 0.590283 1.661821
v 1.168442 0.590283 1.779793
v 1.405991 0.590283 1.424271
vn -0.0000 1.0000 -0.0000
vt 0.802909 0.560411
vt 0.834235 0.534334
vt 0.884122 0.626117
vt 0.873157 0.522229
vt 0.913747 0.525941
vt 0.949828 0.544903
vt 0.975905 0.576230
vt 0.988010 0.615151
vt 0.984298 0.655741
vt 0.965336 0.691822
vt 0.934009 0.717899
vt 0.895088 0.730004
vt 0.854498 0.726292
vt 0.818417 0.707330
vt 0.792340 0.676004
vt 0.780235 0.637082
vt 0.783947 0.596492
s 1
usemtl magic_circle.001
f 133/133/7 134/134/7 149/135/7
f 134/134/7 135/136/7 149/135/7
f 135/136/7 136/137/7 149/135/7
f 136/137/7 137/138/7 149/135/7
f 137/138/7 138/139/7 149/135/7
f 138/139/7 139/140/7 149/135/7
f 139/140/7 140/141/7 149/135/7
f 140/141/7 141/142/7 149/135/7
f 141/142/7 142/143/7 149/135/7
f 142/143/7 143/144/7 149/135/7
f 143/144/7 144/145/7 149/135/7
f 144/145/7 145/146/7 149/135/7
f 145/146/7 146/147/7 149/135/7
f 146/147/7 147/148/7 149/135/7
f 147/148/7 148/149/7 149/135/7
f 148/149/7 133/133/7 149/135/7
o little_star
v -2.550587 0.247498 0.599088
v -2.312253 0.247498 0.599088
v -2.092066 0.247498 0.507879
v -1.923538 0.247498 0.339357
v -1.832335 0.247498 0.119164
v -1.832335 0.247498 -0.119164
v -1.923538 0.247498 -0.339358
v -2.092066 0.247498 -0.507879
v -2.312253 0.247498 -0.599088
v -2.550587 0.247498 -0.599088
v -2.770774 0.247498 -0.507879
v -2.939302 0.247498 -0.339358
v -3.030511 0.247498 -0.119164
v -3.030511 0.247498 0.119164
v -2.939302 0.247498 0.339357
v -2.770774 0.247498 0.507879
v -2.431423 0.247498 -0.000000
vn -0.0000 1.0000 -0.0000
vt 0.624194 0.282448
vt 0.664954 0.282448
vt 0.644574 0.384905
vt 0.702611 0.298046
vt 0.731433 0.326868
vt 0.747031 0.364525
vt 0.747031 0.405285
vt 0.731433 0.442942
vt 0.702611 0.471764
vt 0.664954 0.487362
vt 0.624194 0.487362
vt 0.586537 0.471764
vt 0.557715 0.442942
vt 0.542117 0.405285
vt 0.542117 0.364525
vt 0.557715 0.326868
vt 0.586537 0.298046
s 1
usemtl magic_circle.001
f 150/150/8 151/151/8 166/152/8
f 151/151/8 152/153/8 166/152/8
f 152/153/8 153/154/8 166/152/8
f 153/154/8 154/155/8 166/152/8
f 154/155/8 155/156/8 166/152/8
f 155/156/8 156/157/8 166/152/8
f 156/157/8 157/158/8 166/152/8
f 157/158/8 158/159/8 166/152/8
f 158/159/8 159/160/8 166/152/8
f 159/160/8 160/161/8 166/152/8
f 160/161/8 161/162/8 166/152/8
f 161/162/8 162/163/8 166/152/8
f 162/163/8 163/164/8 166/152/8
f 163/164/8 164/165/8 166/152/8
f 164/165/8 165/166/8 166/152/8
f 165/166/8 150/150/8 166/152/8
o little_star7
v 2.296957 0.247498 0.603038
v 2.535291 0.247498 0.603038
v 2.755479 0.247498 0.511835
v 2.924006 0.247498 0.343308
v 3.015209 0.247498 0.123120
v 3.015209 0.247498 -0.115214
v 2.924006 0.247498 -0.335401
v 2.755479 0.247498 -0.503929
v 2.535291 0.247498 -0.595132
v 2.296957 0.247498 -0.595132
v 2.076770 0.247498 -0.503929
v 1.908243 0.247498 -0.335401
v 1.817039 0.247498 -0.115214
v 1.817039 0.247498 0.123120
v 1.908243 0.247498 0.343308
v 2.076770 0.247498 0.511835
v 2.416121 0.247498 0.003956
vn -0.0000 1.0000 -0.0000
vt 0.857171 0.019385
vt 0.898117 0.019385
vt 0.877644 0.122311
vt 0.935947 0.035054
vt 0.964901 0.064008
vt 0.980570 0.101838
vt 0.980570 0.142784
vt 0.964901 0.180614
vt 0.935947 0.209568
vt 0.898117 0.225237
vt 0.857171 0.225237
vt 0.819341 0.209568
vt 0.790388 0.180614
vt 0.774718 0.142784
vt 0.774718 0.101838
vt 0.790388 0.064008
vt 0.819341 0.035054
s 1
usemtl magic_circle.001
f 167/167/9 168/168/9 183/169/9
f 168/168/9 169/170/9 183/169/9
f 169/170/9 170/171/9 183/169/9
f 170/171/9 171/172/9 183/169/9
f 171/172/9 172/173/9 183/169/9
f 172/173/9 173/174/9 183/169/9
f 173/174/9 174/175/9 183/169/9
f 174/175/9 175/176/9 183/169/9
f 175/176/9 176/177/9 183/169/9
f 176/177/9 177/178/9 183/169/9
f 177/178/9 178/179/9 183/169/9
f 178/179/9 179/180/9 183/169/9
f 179/180/9 180/181/9 183/169/9
f 180/181/9 181/182/9 183/169/9
f 181/182/9 182/183/9 183/169/9
f 182/183/9 167/167/9 183/169/9
o little_star8
v -0.119164 0.800468 0.599088
v 0.119164 0.800468 0.599088
v 0.339358 0.800468 0.507879
v 0.507879 0.800468 0.339357
v 0.599088 0.800468 0.119164
v 0.599088 0.800468 -0.119164
v 0.507879 0.800468 -0.339358
v 0.339358 0.800468 -0.507879
v 0.119164 0.800468 -0.599088
v -0.119164 0.800468 -0.599088
v -0.339358 0.800468 -0.507879
v -0.507879 0.800468 -0.339358
v -0.599088 0.800468 -0.119164
v -0.599088 0.800468 0.119164
v -0.507879 0.800468 0.339357
v -0.339358 0.800468 0.507879
v 0.000000 0.800468 -0.000000
vn -0.0000 1.0000 -0.0000
vt 0.231847 0.669932
vt 0.266499 0.669932
vt 0.249173 0.757036
vt 0.298514 0.683193
vt 0.323017 0.707696
vt 0.336277 0.739710
vt 0.336277 0.774363
vt 0.323017 0.806377
vt 0.298514 0.830880
vt 0.266499 0.844140
vt 0.231847 0.844140
vt 0.199833 0.830880
vt 0.175330 0.806377
vt 0.162069 0.774363
vt 0.162069 0.739710
vt 0.175330 0.707696
vt 0.199833 0.683193
s 1
usemtl magic_circle.001
f 184/184/10 185/185/10 200/186/10
f 185/185/10 186/187/10 200/186/10
f 186/187/10 187/188/10 200/186/10
f 187/188/10 188/189/10 200/186/10
f 188/189/10 189/190/10 200/186/10
f 189/190/10 190/191/10 200/186/10
f 190/191/10 191/192/10 200/186/10
f 191/192/10 192/193/10 200/186/10
f 192/193/10 193/194/10 200/186/10
f 193/194/10 194/195/10 200/186/10
f 194/195/10 195/196/10 200/186/10
f 195/196/10 196/197/10 200/186/10
f 196/197/10 197/198/10 200/186/10
f 197/198/10 198/199/10 200/186/10
f 198/199/10 199/200/10 200/186/10
f 199/200/10 184/184/10 200/186/10
o tall_rune
v -1.498392 0.590277 -0.961532
v -1.331560 0.590277 -0.961532
v -1.177430 0.590277 -1.025377
v -1.059463 0.590277 -1.143344
v -0.995618 0.590276 -1.297480
v -0.995618 0.590276 -1.464312
v -1.059463 0.590276 -1.618443
v -1.177430 0.590276 -1.736410
v -1.331560 0.590276 -1.800254
v -1.498392 0.590276 -1.800254
v -1.652529 0.590276 -1.736410
v -1.770495 0.590276 -1.618443
v -1.834340 0.590276 -1.464312
v -1.834340 0.590276 -1.297480
v -1.770495 0.590277 -1.143344
v -1.652529 0.590277 -1.025377
v -1.414979 0.590276 -1.380893
vn -0.0000 1.0000 -0.0000
vt 0.551161 0.820416
vt 0.578916 0.790298
vt 0.640746 0.875124
vt 0.616085 0.773093
vt 0.657007 0.771422
vt 0.695455 0.785539
vt 0.725573 0.813295
vt 0.742777 0.850463
vt 0.744448 0.891386
vt 0.730331 0.929833
vt 0.702576 0.959951
vt 0.665408 0.977156
vt 0.624485 0.978827
vt 0.586037 0.964710
vt 0.555919 0.936954
vt 0.538715 0.899786
vt 0.537044 0.858863
s 1
usemtl magic_circle.001
f 201/201/11 202/202/11 217/203/11
f 202/202/11 203/204/11 217/203/11
f 203/204/11 204/205/11 217/203/11
f 204/205/11 205/206/11 217/203/11
f 205/206/11 206/207/11 217/203/11
f 206/207/11 207/208/11 217/203/11
f 207/208/11 208/209/11 217/203/11
f 208/209/11 209/210/11 217/203/11
f 209/210/11 210/211/11 217/203/11
f 210/211/11 211/212/11 217/203/11
f 211/212/11 212/213/11 217/203/11
f 212/213/11 213/214/11 217/203/11
f 213/214/11 214/215/11 217/203/11
f 214/215/11 215/216/11 217/203/11
f 215/216/11 216/217/11 217/203/11
f 216/217/11 201/201/11 217/203/11
o up_rune
v -0.116229 0.247498 -1.796973
v 0.122105 0.247498 -1.796973
v 0.342293 0.247498 -1.888183
v 0.510820 0.247498 -2.056704
v 0.602023 0.247498 -2.276897
v 0.602023 0.247497 -2.515225
v 0.510820 0.247497 -2.735419
v 0.342293 0.247497 -2.903940
v 0.122105 0.247497 -2.995149
v -0.116229 0.247497 -2.995149
v -0.336416 0.247497 -2.903940
v -0.504943 0.247497 -2.735419
v -0.596153 0.247497 -2.515225
v -0.596153 0.247498 -2.276897
v -0.504943 0.247498 -2.056704
v -0.336416 0.247498 -1.888183
v 0.002935 0.247498 -2.396061
vn -0.0000 1.0000 -0.0000
vt 0.620195 0.020064
vt 0.661252 0.020064
vt 0.640724 0.123268
vt 0.699184 0.035776
vt 0.728216 0.064807
vt 0.743928 0.102739
vt 0.743928 0.143796
vt 0.728216 0.181728
vt 0.699184 0.210760
vt 0.661252 0.226471
vt 0.620195 0.226471
vt 0.582263 0.210760
vt 0.553232 0.181728
vt 0.537520 0.143796
vt 0.537520 0.102739
vt 0.553232 0.064807
vt 0.582263 0.035776
s 1
usemtl magic_circle.001
f 218/218/12 219/219/12 234/220/12
f 219/219/12 220/221/12 234/220/12
f 220/221/12 221/222/12 234/220/12
f 221/222/12 222/223/12 234/220/12
f 222/223/12 223/224/12 234/220/12
f 223/224/12 224/225/12 234/220/12
f 224/225/12 225/226/12 234/220/12
f 225/226/12 226/227/12 234/220/12
f 226/227/12 227/228/12 234/220/12
f 227/228/12 228/229/12 234/220/12
f 228/229/12 229/230/12 234/220/12
f 229/230/12 230/231/12 234/220/12
f 230/231/12 231/232/12 234/220/12
f 231/232/12 232/233/12 234/220/12
f 232/233/12 233/234/12 234/220/12
f 233/234/12 218/218/12 234/220/12
